<svg width="21" height="21" fill="none" xmlns="http://www.w3.org/2000/svg"><path d="M10.5 5.813a4.688 4.688 0 100 9.375 4.688 4.688 0 000-9.376zm0 7.812a3.125 3.125 0 110-6.25 3.125 3.125 0 010 6.25zM15.188.344H5.812A5.475 5.475 0 00.345 5.812v9.375a5.475 5.475 0 005.468 5.47h9.375a5.475 5.475 0 005.47-5.47V5.813a5.475 5.475 0 00-5.47-5.47zm3.906 14.844a3.906 3.906 0 01-3.907 3.906H5.813a3.906 3.906 0 01-3.907-3.907V5.813a3.906 3.906 0 013.907-3.907h9.375a3.906 3.906 0 013.906 3.907v9.375zM16.75 5.421a1.172 1.172 0 11-2.343 0 1.172 1.172 0 012.343 0z" fill="#000"/></svg>